#define 8eb77858b2564a80ad010904340af8639XT8Ger7Ww15NimK_width 24
#define 8eb77858b2564a80ad010904340af8639XT8Ger7Ww15NimK_height 24
static char 8eb77858b2564a80ad010904340af8639XT8Ger7Ww15NimK_bits[] = {
  0xFC, 0xFF, 0x03, 0x5C, 0x96, 0x03, 0x04, 0x00, 0x03, 0x06, 0x00, 0x02, 
  0x06, 0x00, 0x2E, 0x04, 0x00, 0x3F, 0x06, 0x00, 0x22, 0x04, 0x00, 0x63, 
  0x04, 0x00, 0x22, 0x06, 0x00, 0x63, 0x06, 0x00, 0x63, 0x04, 0x00, 0x22, 
  0x06, 0x00, 0x62, 0x04, 0x00, 0x23, 0x04, 0x00, 0x23, 0x06, 0x00, 0x62, 
  0x06, 0x00, 0x62, 0x04, 0x00, 0x23, 0xFC, 0xFF, 0x63, 0xE4, 0x55, 0x21, 
  0xC0, 0x00, 0x60, 0x40, 0x00, 0x20, 0xC0, 0x69, 0x76, 0xC0, 0xFF, 0x3F, 
  };
