#define d21de2043665425c8f3cb28a909c586caG1vbjpnqidXEoZ8_width 24
#define d21de2043665425c8f3cb28a909c586caG1vbjpnqidXEoZ8_height 24
static char d21de2043665425c8f3cb28a909c586caG1vbjpnqidXEoZ8_bits[] = {
  0x00, 0x00, 0x00, 0x00, 0x00, 0x00, 0x00, 0x00, 0x00, 0x00, 0x00, 0x00, 
  0xC0, 0x7F, 0x00, 0x40, 0xC0, 0x00, 0x40, 0xE0, 0x01, 0x60, 0x40, 0x03, 
  0x40, 0xC0, 0x03, 0x40, 0x40, 0x06, 0x60, 0x20, 0x02, 0x40, 0x30, 0x06, 
  0x40, 0xF3, 0x02, 0x60, 0x3F, 0x06, 0x40, 0x1F, 0x02, 0x60, 0x1C, 0x06, 
  0x60, 0x34, 0x06, 0x40, 0x1C, 0x02, 0x40, 0x00, 0x02, 0xC0, 0xFF, 0x03, 
  0x00, 0x00, 0x00, 0x00, 0x00, 0x00, 0x00, 0x00, 0x00, 0x00, 0x00, 0x00, 
  };
